# xmcd
#
# Track frame offsets:
#	150
#	11939
#	27572
#	44506
#	60975
#	74292
#	91966
#	108856
#	123968
#	141287
#	157773
#	171486
#	177304
#	181492
#	185311
#	191592
#	197760
#	201776
#	229470
#	244283
#	257264
#	270165
#	283961
#	288869
#	292171
#
# Disc length: 3965 seconds
#
# Revision: 0
# Processed by: cddbd v1.5.2PL0 Copyright (c) Steve Scherf et al.
# Submitted via: EasyCDDAExtractor 16.0.6.1
#
DISCID=780f7b19
DTITLE=Συλλογικός δίσκος - Τα ωραιότερα ελλ. ελαφρά τραγούδια 06
DYEAR=2010
DGENRE=Ελαφρά
TTITLE0=Μακούλης Τζίμης - Βίρα τις άγκυρες [Γ. Μουζάκης-Αλ. Αγγελόπουλος]
TTITLE1=Δενάρδου Κλειώ - Απόψε σε θυμήθηκα [Γ. Μουζάκης-Κ. Νικολαΐδης]
TTITLE2=Χρυσός Τέρης - Σού αξίζει [Γ. Μουζάκης-Αιμ. Σαββίδης]
TTITLE3=Ζήλια Άντζελα - Δε σ' αλλάζω με τίποτα [Γ. Μουζάκης-Κ. Νικολαΐδης]
TTITLE4=Βογιατζής Γιάννης - Άϊ Μορένα [Γιώργος Μουζάκης]
TTITLE5=Δενάρδου Κλειώ - Τάνγκο νοτούρνο [H.Beckmann-H.Borgmann, απ.Π.Μενεστρέ
TTITLE5=λ]
TTITLE6=Παναγόπουλος Σώτος - Σαν πιώ κρασί [Μ. Κατριβάνος-Ν. Τρεμπέλλας]
TTITLE7=Τόλη Μαριάννα - Μαμά, εγώ θέλω αντρούλη [R.Callazo-R.Fontaina, απ.Π.Με
TTITLE7=νεστρέλ]
TTITLE8=Βογιατζής Γιάννης - Το τανγκό της Αθήνας [Γιώργος Μουζάκης]
TTITLE9=Δενάρδου Κλειώ - Σ' αγαπώ τόσο πολύ [Γ.Μουζάκης-Γ.Ασημ)λος/Παπαδούκας/
TTITLE9=Σπυρ)λος]
TTITLE10=Κόκκινος Πάνος - Τσιγγάνα καρδιά [E.F.Migliachi-C.Matton, απ.Ν.Κύτταρ
TTITLE10=ης]
TTITLE11=Κορώνη Γεωργία - Ψεύτικε ντουνιά [Κώστας Σεϊτανίδης]
TTITLE12=Κορώνη Γεωργία - Στης νύχτας τη σιγαλιά [Ε. Πόγγης-Αιμ. Δραγάτσης]
TTITLE13=Κορώνη Γεωργία - Ψέματα, ψέματα [Γιάννης Σπάρτακος]
TTITLE14=Παρούσης Σταύρος - Κανείς δεν το πιστεύει [Αιμ. Σαββίδης-Μ. Πορτοκάλη
TTITLE14=ς]
TTITLE15=Παρούσης Σταύρος - Κλάψε τώρα πιά και μη γελάς [Αιμ. Σαββίδης-Μ. Πορτ
TTITLE15=οκάλης]
TTITLE16=Παρούσης Σταύρος - Ακρόπολη-Πλάκα [Αιμ. Σαββίδης-Μ. Πορτοκάλης]
TTITLE17=Προέδρου Βέττα - Έλα για απόψε [Χρήστος Χαιρόπουλος]
TTITLE18=Παρούσης Σταύρος-Κορώνη Γεωργία - Κι όμως [Αττίκ]
TTITLE19=Γιοβάννα - Ανοιξιάτικο βραδάκι [Σ. Μεντής-Γιάννης Ρίτσος]
TTITLE20=Ζήλια Άντζελα - Μαρία [Γ. Μουζάκης-Κ. Νικολαΐδης]
TTITLE21=Ζορμπαλά Μαργαρίτα - Ας σταματήσουμε ως εδώ [Κ. Γιαννίδης-Κ. Κιούσης]
TTITLE22=Παρούσης Σταύρος - Ένας φίλος ήρθε απόψε [Γ. Μουζάκης-Φίλων Αρίας]
TTITLE23=Παρούσης Σταύρος - Χιονάτη [Γ. Μουζάκης-Γ. Οικονομίδης]
TTITLE24=Παρούσης Σταύρος - Καπετάνιε χαμογέλα [Κ. Νικολαΐδης-Νίκυ Γιάκοφλεφ]
EXTD=
EXTT0=
EXTT1=
EXTT2=
EXTT3=
EXTT4=
EXTT5=
EXTT6=
EXTT7=
EXTT8=
EXTT9=
EXTT10=
EXTT11=
EXTT12=
EXTT13=
EXTT14=
EXTT15=
EXTT16=
EXTT17=
EXTT18=
EXTT19=
EXTT20=
EXTT21=
EXTT22=
EXTT23=
EXTT24=
PLAYORDER=
